HIERARCHY
ROOT Hips
{
  OFFSET 0.000000 0.000000 0.000000
  CHANNELS 6 Xposition Yposition Zposition Xrotation Yrotation Zrotation
  JOINT Spine
  {
    OFFSET 1.388230 22.849755 -8.157144
    CHANNELS 3 Xrotation Yrotation Zrotation
    JOINT Chest
    {
      OFFSET 1.388230 22.849755 -8.157144
      CHANNELS 3 Xrotation Yrotation Zrotation
      JOINT Neck
      {
        OFFSET 0.386562 8.498444 -3.690407
        CHANNELS 3 Xrotation Yrotation Zrotation
        JOINT Head
        {
          OFFSET 0.662911 7.396516 -7.447500
          CHANNELS 3 Xrotation Yrotation Zrotation
          End Site
          {
            OFFSET 0.198873 2.218955 -2.234250
          }
        }
      }
      JOINT LeftShoulder
      {
        OFFSET 17.248308 -1.208605 -0.261267
        CHANNELS 3 Xrotation Yrotation Zrotation
        JOINT LeftArm
        {
          OFFSET 7.635523 -21.435821 1.774202
          CHANNELS 3 Xrotation Yrotation Zrotation
          JOINT LeftForeArm
          {
            OFFSET 7.643843 -21.327462 -9.147581
            CHANNELS 3 Xrotation Yrotation Zrotation
            JOINT LeftHand
            {
              OFFSET 0.473402 -5.275506 -2.178749
              CHANNELS 3 Xrotation Yrotation Zrotation
              End Site
              {
                OFFSET 0.142021 -1.582652 -0.653625
              }
            }
          }
        }
      }
      JOINT RightShoulder
      {
        OFFSET -17.248308 1.208605 0.261267
        CHANNELS 3 Xrotation Yrotation Zrotation
        JOINT RightArm
        {
          OFFSET -12.133127 -21.363330 5.693170
          CHANNELS 3 Xrotation Yrotation Zrotation
          JOINT RightForeArm
          {
            OFFSET -7.740244 -22.047532 -5.230031
            CHANNELS 3 Xrotation Yrotation Zrotation
            JOINT RightHand
            {
              OFFSET -0.480044 -5.557554 -1.525311
              CHANNELS 3 Xrotation Yrotation Zrotation
              End Site
              {
                OFFSET -0.144013 -1.667266 -0.457593
              }
            }
          }
        }
      }
    }
  }
  JOINT LeftUpLeg
  {
    OFFSET 11.699587 -0.675443 -0.599665
    CHANNELS 3 Xrotation Yrotation Zrotation
    JOINT LeftLeg
    {
      OFFSET -6.527727 -38.483662 1.737457
      CHANNELS 3 Xrotation Yrotation Zrotation
      JOINT LeftFoot
      {
        OFFSET 3.065902 -35.809878 12.679608
        CHANNELS 3 Xrotation Yrotation Zrotation
        End Site
        {
          OFFSET 0.919771 -10.742963 3.803882
        }
      }
    }
  }
  JOINT RightUpLeg
  {
    OFFSET -11.699587 0.675443 0.599665
    CHANNELS 3 Xrotation Yrotation Zrotation
    JOINT RightLeg
    {
      OFFSET -1.173808 -37.981520 -1.210152
      CHANNELS 3 Xrotation Yrotation Zrotation
      JOINT RightFoot
      {
        OFFSET -7.846448 -39.021816 7.691272
        CHANNELS 3 Xrotation Yrotation Zrotation
        End Site
        {
          OFFSET -2.353934 -11.706545 2.307382
        }
      }
    }
  }
}
MOTION
Frames: 21
Frame Time: 0.083333
-3.569313 60.000000 -11.555628 -0.829474 -0.343116 -1.073928 -0.829474 -0.343116 -1.073928 0.000000 0.000000 0.000000 -4.032813 8.806489 7.760186 5.000000 0.000000 0.000000 6.165846 2.642407 21.899379 0.735350 0.676189 -1.380204 0.000000 0.000000 0.000000 0.000000 0.000000 0.000000 13.872593 -12.581044 -56.727975 26.687413 0.722595 -5.606929 0.000000 0.000000 0.000000 0.000000 0.000000 0.000000 -4.682510 1.087297 3.290030 4.698743 -0.843114 -4.021141 0.000000 0.000000 0.000000 6.412248 0.633883 -9.371452 3.574330 -0.316026 2.405926 0.000000 0.000000 0.000000
-3.336961 60.000000 -10.516918 2.082391 -0.439021 -0.932379 2.082391 -0.439021 -0.932379 0.000000 0.000000 0.000000 -2.065556 8.758479 8.157129 5.000000 0.000000 0.000000 3.844617 2.272122 21.440631 -1.550374 0.345351 -1.086647 0.000000 0.000000 0.000000 0.000000 0.000000 0.000000 19.628490 -12.486444 -54.885972 27.549133 -0.683695 -2.561566 0.000000 0.000000 0.000000 0.000000 0.000000 0.000000 -5.378021 1.337066 4.421607 4.456654 -0.526195 -2.890341 0.000000 0.000000 0.000000 3.248213 0.437583 -8.801976 5.265150 -0.729877 2.159793 0.000000 0.000000 0.000000
-3.174440 60.000000 -9.686736 4.360154 -0.551519 -0.923440 4.360154 -0.551519 -0.923440 0.000000 0.000000 0.000000 -2.505848 8.827659 8.122605 5.000000 0.000000 0.000000 2.404672 1.963205 20.134802 -2.357295 0.176879 -0.829868 0.000000 0.000000 0.000000 0.000000 0.000000 0.000000 18.686159 -11.979723 -49.263572 19.852388 -1.174231 -0.651111 0.000000 0.000000 0.000000 0.000000 0.000000 0.000000 -5.838434 1.596047 5.972135 6.273961 -0.081248 -2.093080 0.000000 0.000000 0.000000 0.683068 0.293112 -8.269533 6.122442 -0.878769 2.418308 0.000000 0.000000 0.000000
-2.996210 60.000000 -8.809339 6.185287 -0.624136 -0.858439 6.185287 -0.624136 -0.858439 0.000000 0.000000 0.000000 -2.820811 8.526716 7.773694 5.000000 0.000000 0.000000 0.110810 1.388912 17.393226 -5.144065 -0.161058 -0.534590 0.000000 0.000000 0.000000 0.000000 0.000000 0.000000 11.632121 -10.095644 -36.994846 11.302730 -0.614340 -0.728107 0.000000 0.000000 0.000000 0.000000 0.000000 0.000000 -6.267132 1.815397 7.152982 8.532410 0.224841 -1.871074 0.000000 0.000000 0.000000 -0.166207 0.253996 -8.001042 5.730572 -0.732299 2.827658 0.000000 0.000000 0.000000
-2.814467 60.000000 -8.096789 6.395601 -0.565738 -0.626774 6.395601 -0.565738 -0.626774 0.000000 0.000000 0.000000 -3.871270 8.000640 7.055852 5.000000 0.000000 0.000000 -0.257730 1.015779 13.491407 -5.483635 -0.284588 -0.273157 0.000000 0.000000 0.000000 0.000000 0.000000 0.000000 5.577338 -6.726697 -20.631818 3.815643 0.262718 -2.109656 0.000000 0.000000 0.000000 0.000000 0.000000 0.000000 -5.416319 1.603873 6.948728 7.417314 0.281795 -1.305234 0.000000 0.000000 0.000000 -2.368337 0.158114 -7.544421 5.097288 -0.514900 3.331458 0.000000 0.000000 0.000000
-2.685215 60.000000 -7.476388 5.830029 -0.460168 -0.372935 5.830029 -0.460168 -0.372935 0.000000 0.000000 0.000000 -4.858767 7.673179 6.552317 5.000000 0.000000 0.000000 -0.389022 0.821139 11.432194 -5.558208 -0.289517 -0.272763 0.000000 0.000000 0.000000 0.000000 0.000000 0.000000 2.729141 -4.143071 -11.881576 0.761754 0.763481 -3.480379 0.000000 0.000000 0.000000 0.000000 0.000000 0.000000 -6.879033 1.979644 7.223079 8.754310 0.283883 -1.780294 0.000000 0.000000 0.000000 -2.475029 0.152593 -7.303223 4.505692 -0.325256 3.675626 0.000000 0.000000 0.000000
-2.739759 60.000000 -7.035746 4.211622 -0.372194 -0.363594 4.211622 -0.372194 -0.363594 0.000000 0.000000 0.000000 -6.628740 7.545283 6.089663 5.000000 0.000000 0.000000 -0.898422 0.702189 11.380349 -5.112474 -0.200278 -0.421965 0.000000 0.000000 0.000000 0.000000 0.000000 0.000000 1.167346 -2.679744 -8.653670 1.762768 0.830750 -3.916563 0.000000 0.000000 0.000000 0.000000 0.000000 0.000000 -4.220334 1.239934 6.200351 5.711197 0.348231 -0.456807 0.000000 0.000000 0.000000 -1.675237 0.162230 -6.861344 3.988721 -0.107562 4.265505 0.000000 0.000000 0.000000
-2.963527 60.000000 -6.617613 0.551953 -0.318249 -0.788584 0.551953 -0.318249 -0.788584 0.000000 0.000000 0.000000 -10.636527 7.563239 5.345682 5.000000 0.000000 0.000000 -2.992245 0.426521 13.473588 -4.329683 0.014569 -0.821652 0.000000 0.000000 0.000000 0.000000 0.000000 0.000000 -0.962874 -0.551252 -4.078860 2.484877 0.907479 -4.394858 0.000000 0.000000 0.000000 0.000000 0.000000 0.000000 -4.520620 1.398641 7.133640 8.501331 0.520729 -0.753186 0.000000 0.000000 0.000000 4.072696 0.308902 -6.528705 3.418649 0.210933 5.350658 0.000000 0.000000 0.000000
-3.100779 60.000000 -5.753372 -3.396129 -0.363956 -1.454089 -3.396129 -0.363956 -1.454089 0.000000 0.000000 0.000000 -12.842749 6.508956 4.092092 5.000000 0.000000 0.000000 -5.753025 0.364524 18.351858 -3.495120 0.345878 -1.426899 0.000000 0.000000 0.000000 0.000000 0.000000 0.000000 -1.007024 -0.000183 -2.081122 -2.145854 1.123426 -4.795484 0.000000 0.000000 0.000000 0.000000 0.000000 0.000000 -5.807043 1.815110 8.347806 11.642542 0.662861 -1.260373 0.000000 0.000000 0.000000 7.756255 0.384727 -6.259104 2.483421 0.506168 5.711659 0.000000 0.000000 0.000000
-2.993356 60.000000 -4.301647 -4.389964 -0.788682 -2.628183 -4.389964 -0.788682 -2.628183 0.000000 0.000000 0.000000 -12.237345 3.598150 1.905080 5.000000 0.000000 0.000000 -4.804356 1.539473 27.017776 0.306134 1.169137 -2.496790 0.000000 0.000000 0.000000 0.000000 0.000000 0.000000 0.247401 -0.658878 -1.987075 -2.130459 1.139956 -4.886386 0.000000 0.000000 0.000000 0.000000 0.000000 0.000000 -5.441388 1.739327 8.439755 10.416611 0.826542 -0.253364 0.000000 0.000000 0.000000 7.469770 0.371846 -6.194595 1.345694 0.777497 5.621755 0.000000 0.000000 0.000000
-2.742599 60.000000 -1.894065 -5.259086 -1.388465 -4.184548 -5.259086 -1.388465 -4.184548 0.000000 0.000000 0.000000 -13.409664 0.533429 -0.631230 5.000000 0.000000 0.000000 -2.796962 2.502319 36.098848 2.149209 2.029038 -3.788986 0.000000 0.000000 0.000000 0.000000 0.000000 0.000000 0.536950 -0.837172 -2.072408 -0.630898 1.042425 -4.582467 0.000000 0.000000 0.000000 0.000000 0.000000 0.000000 -3.807259 1.256372 7.464002 6.388245 0.932875 1.300756 0.000000 0.000000 0.000000 9.005015 0.422711 -6.316037 -1.904089 1.530988 5.310581 0.000000 0.000000 0.000000
-2.599815 60.000000 0.547329 -5.587606 -1.865585 -5.358746 -5.587606 -1.865585 -5.358746 0.000000 0.000000 0.000000 -15.042090 -1.343151 -2.211667 5.000000 0.000000 0.000000 1.992199 3.287496 45.126212 4.909979 2.822625 -4.650312 0.000000 0.000000 0.000000 0.000000 0.000000 0.000000 0.834365 -1.278005 -3.165901 0.852591 0.945020 -4.307221 0.000000 0.000000 0.000000 0.000000 0.000000 0.000000 -2.266540 0.800867 6.248531 2.499910 0.883817 2.049680 0.000000 0.000000 0.000000 11.157236 0.500661 -6.556528 -6.592166 2.543586 4.621035 0.000000 0.000000 0.000000
-2.450548 60.000000 1.959072 -5.712472 -2.388370 -6.639593 -5.712472 -2.388370 -6.639593 0.000000 0.000000 0.000000 -15.224402 -2.422047 -3.048970 5.000000 0.000000 0.000000 4.541546 3.334447 51.598303 5.044319 2.838775 -4.661360 0.000000 0.000000 0.000000 0.000000 0.000000 0.000000 0.380789 -1.720976 -5.954033 0.233946 0.866935 -3.866327 0.000000 0.000000 0.000000 0.000000 0.000000 0.000000 -0.478144 0.374173 5.323860 0.699911 0.728771 1.919061 0.000000 0.000000 0.000000 13.398878 0.498949 -6.083993 -8.938660 2.883606 3.718041 0.000000 0.000000 0.000000
-2.278582 60.000000 1.698671 -5.002632 -2.623656 -7.220923 -5.002632 -2.623656 -7.220923 0.000000 0.000000 0.000000 -14.241193 -2.986895 -3.447279 5.000000 0.000000 0.000000 10.740874 2.602489 55.318682 9.612903 2.912140 -3.845893 0.000000 0.000000 0.000000 0.000000 0.000000 0.000000 1.041997 -2.865761 -9.575114 -0.810448 0.789672 -3.347058 0.000000 0.000000 0.000000 0.000000 0.000000 0.000000 5.570594 -0.931931 4.110366 0.272470 0.821815 2.237929 0.000000 0.000000 0.000000 12.851502 0.386630 -5.218775 -10.402000 3.068298 3.175597 0.000000 0.000000 0.000000
-2.203215 60.000000 1.171288 -4.581006 -2.508551 -6.944069 -4.581006 -2.508551 -6.944069 0.000000 0.000000 0.000000 -12.591845 -3.256415 -3.610222 5.000000 0.000000 0.000000 19.025948 1.377630 56.143742 17.953453 2.918586 -2.302790 0.000000 0.000000 0.000000 0.000000 0.000000 0.000000 3.396652 -4.845176 -14.142760 -0.901218 0.586685 -2.369960 0.000000 0.000000 0.000000 0.000000 0.000000 0.000000 10.151092 -1.847397 2.798434 -1.956218 0.792633 2.568414 0.000000 0.000000 0.000000 8.646510 0.096949 -3.275873 -11.960309 3.035355 1.813761 0.000000 0.000000 0.000000
-2.410349 60.000000 0.427288 -4.291845 -2.158990 -6.071944 -4.291845 -2.158990 -6.071944 0.000000 0.000000 0.000000 -9.279079 -3.342240 -3.606031 5.000000 0.000000 0.000000 19.513819 1.290924 56.395177 21.512363 1.753756 -0.015791 0.000000 0.000000 0.000000 0.000000 0.000000 0.000000 5.915947 -6.787193 -20.046385 -1.077726 0.355584 -1.284622 0.000000 0.000000 0.000000 0.000000 0.000000 0.000000 12.927467 -2.410140 3.026250 -1.329442 0.378477 1.361700 0.000000 0.000000 0.000000 3.622436 0.005785 -2.273463 -8.678583 2.189597 1.546027 0.000000 0.000000 0.000000
-2.842812 60.000000 -0.367926 -4.154148 -1.500974 -4.408449 -4.154148 -1.500974 -4.408449 0.000000 0.000000 0.000000 -6.976991 -3.914752 -4.038670 5.000000 0.000000 0.000000 15.683467 1.831708 57.587328 19.516138 -0.277898 3.015150 0.000000 0.000000 0.000000 0.000000 0.000000 0.000000 10.714731 -9.031748 -24.595097 -0.257892 0.011532 -0.021154 0.000000 0.000000 0.000000 0.000000 0.000000 0.000000 14.128178 -2.729970 3.986408 -2.089958 -0.185908 -0.022618 0.000000 0.000000 0.000000 -2.909981 0.107489 -2.861234 -3.889743 1.339883 2.342578 0.000000 0.000000 0.000000
-3.367976 60.000000 -0.673592 -4.045999 -0.601503 -2.155297 -4.045999 -0.601503 -2.155297 0.000000 0.000000 0.000000 -5.342956 -3.791295 -3.877415 5.000000 0.000000 0.000000 8.724158 2.930834 58.987533 12.957008 -2.307833 6.276177 0.000000 0.000000 0.000000 0.000000 0.000000 0.000000 14.259400 -10.097195 -24.944711 1.750834 -0.391230 1.009999 0.000000 0.000000 0.000000 0.000000 0.000000 0.000000 15.250565 -3.016162 4.577354 -1.893287 -0.438656 -0.759141 0.000000 0.000000 0.000000 -4.273516 0.112893 -2.738436 -1.832791 0.821688 2.095701 0.000000 0.000000 0.000000
-3.796679 60.000000 -0.452687 -4.831125 0.184882 -0.301225 -4.831125 0.184882 -0.301225 0.000000 0.000000 0.000000 -2.909369 -2.642562 -2.728673 5.000000 0.000000 0.000000 1.967280 4.078076 58.723120 6.257045 -3.416813 8.458365 0.000000 0.000000 0.000000 0.000000 0.000000 0.000000 15.916510 -10.487275 -23.863422 4.220728 -0.696361 1.383436 0.000000 0.000000 0.000000 0.000000 0.000000 0.000000 11.453562 -2.229760 4.728636 -2.861237 -0.242801 -0.055149 0.000000 0.000000 0.000000 -6.242612 0.126791 -2.778750 0.636914 0.236779 1.915506 0.000000 0.000000 0.000000
-4.083928 60.000000 -0.475114 -6.123182 0.672769 0.700088 -6.123182 0.672769 0.700088 0.000000 0.000000 0.000000 -0.632202 -1.327143 -1.357478 5.000000 0.000000 0.000000 -0.806102 4.452754 57.125255 6.733091 -3.694752 9.076081 0.000000 0.000000 0.000000 0.000000 0.000000 0.000000 17.142809 -10.800292 -23.206419 6.415657 -0.851427 1.269978 0.000000 0.000000 0.000000 0.000000 0.000000 0.000000 5.029647 -0.811218 4.915235 -3.861293 0.267654 1.521680 0.000000 0.000000 0.000000 -4.965230 0.126786 -2.269650 -0.028835 0.321079 1.595083 0.000000 0.000000 0.000000
-4.394682 60.000000 -0.909890 -6.360552 0.785673 0.929449 -6.360552 0.785673 0.929449 0.000000 0.000000 0.000000 -0.382309 0.012720 -0.022621 5.000000 0.000000 0.000000 -0.535910 4.313877 55.931405 7.138929 -3.784744 9.261074 0.000000 0.000000 0.000000 0.000000 0.000000 0.000000 15.926979 -10.393365 -22.554884 6.106825 -0.772228 1.096707 0.000000 0.000000 0.000000 0.000000 0.000000 0.000000 2.909856 -0.362557 7.102408 -1.023968 0.412135 1.384744 0.000000 0.000000 0.000000 -4.716270 0.128009 -1.800459 0.157002 0.432142 2.363500 0.000000 0.000000 0.000000
